<svg xmlns="http://www.w3.org/2000/svg" viewBox="0 0 408 446" fill="none">
  <!-- Nsplit mark — navy only, transparent background -->
  <path
    fill="#282A75"
    d="M67.01 427.93C48.47 422.81 32.4 409.57 23.75 392.28C15.38 375.57 15.9 387.54 16.22 219C16.5 69.5 16.5 69.5 19.2 62.24C23.61 50.33 27.05 44.96 36 35.93C50.02 21.8 63.77 16.04 83.54 16.01C95.6 16 102.7 17.65 113.69 23.03C121.96 27.07 127.22 31.48 191.78 88.39C203 98.27 203 98.27 203 160.14C203 194.16 202.71 222 202.35 222C201.99 222 199.38 219.86 196.56 217.25C193.74 214.64 185.6 207.5 178.46 201.4C171.33 195.29 160.6 186.06 154.61 180.9C132.53 161.84 132.16 161.58 129.19 163.13C127.75 163.88 122.44 168.55 117.4 173.5C109.18 181.56 107.7 183.6 103.21 193C96.96 206.11 95.81 210.9 95.85 223.66C95.88 234.52 96.64 238.55 100.69 249.36C106.3 264.33 111.99 270.61 148.07 301.57C154.43 307.03 163.43 314.83 168.07 318.89C180.47 329.77 181.55 330.7 192.88 340.48C203.26 349.43 203.26 349.43 199.38 352.84C171.45 377.38 124.15 417.22 119.43 420.18C104.85 429.35 83.54 432.49 67.01 427.93Z"
  />
  <path
    fill="#282A75"
    d="M312 429.31C306.24 428.35 296.07 424.48 290 420.94C282.62 416.63 277.08 412.06 230.2 371.6C216.24 359.56 204.64 349.21 204.4 348.6C204.17 348 204.1 319.89 204.24 286.15C204.5 224.8 204.5 224.8 233.54 249.65C278.77 288.37 274.95 285.84 281.26 281.18C313.99 257 321.23 210.91 297 180.96C291.78 174.51 282.32 165.87 250.9 138.89C235.94 126.05 215.7 108.39 210.15 103.36C204.8 98.5 204.8 98.5 211.65 92C220.76 83.36 272.51 37.91 280.89 31.2C305.46 11.52 339.51 10.67 364.02 29.13C375.93 38.11 382.87 47.81 388.18 62.91C391.58 72.55 391.98 92.44 391.71 234.5C391.41 389.96 392.15 376.41 382.92 394.09C369.76 419.29 340.12 434.01 312 429.31Z"
  />
</svg>
